<svg xmlns="http://www.w3.org/2000/svg" width="900" height="1125" viewBox="0 0 900 1125"><rect width="900" height="1125" fill="#f6f2ff"/><rect x="55" y="55" width="790" height="1015" rx="50" fill="#fff"/><circle cx="685" cy="260" r="185" fill="#c52a31"/><circle cx="685" cy="260" r="128" fill="#e9575f"/><rect x="115" y="130" width="270" height="54" rx="27" fill="#25163d"/><text x="145" y="166" fill="#fff" font-family="Arial" font-size="24" font-weight="700">CONTENT SERIES 02</text><text x="115" y="315" fill="#25163d" font-family="Arial" font-size="72" font-weight="800">MAKE IT</text><text x="115" y="390" fill="#7c3aed" font-family="Arial" font-size="72" font-weight="800">MEMORABLE.</text><text x="115" y="460" fill="#6b6674" font-family="Arial" font-size="28">A sample static post for your client portal.</text><rect x="115" y="565" width="670" height="280" rx="34" fill="#25163d"/><rect x="165" y="615" width="245" height="180" rx="22" fill="#7c3aed"/><rect x="445" y="615" width="290" height="28" rx="14" fill="#fff"/><rect x="445" y="665" width="220" height="18" rx="9" fill="#aaa1bc"/><rect x="445" y="705" width="250" height="18" rx="9" fill="#aaa1bc"/><rect x="445" y="760" width="150" height="44" rx="22" fill="#c52a31"/><text x="115" y="960" fill="#25163d" font-family="Arial" font-size="26" font-weight="700">STATIC • INSTAGRAM • APPROVAL PREVIEW</text></svg>